<svg width="22" height="22" viewBox="0 0 22 22" fill="none" xmlns="http://www.w3.org/2000/svg">
<path d="M20.8794 0H1.12186C0.502247 0 -4.57764e-05 0.502293 -4.57764e-05 1.1219V10.5297C-4.57764e-05 11.1493 0.502247 11.6516 1.12186 11.6516H5.17554V20.8795C5.17517 21.1769 5.29307 21.4623 5.50325 21.6727C5.71343 21.8831 5.99864 22.0014 6.29606 22.0014H15.7038C16.3235 22.0014 16.8257 21.4991 16.8257 20.8795V11.6557H20.8794C21.1768 11.6557 21.4621 11.5375 21.6722 11.327C21.8824 11.1166 22.0003 10.8312 22 10.5338V1.1219C22.0003 0.824482 21.8824 0.539118 21.6722 0.328681C21.4621 0.118244 21.1768 0 20.8794 0ZM1.30037 1.30179H10.3497V10.3512H1.30037V1.30179ZM15.5253 20.701H6.47595V11.6557H15.5253V20.701ZM20.6995 10.3512H11.6502V1.30179H20.6995V10.3512Z" fill="#2D3748"/>
<path d="M7.44821 7.32455C7.70447 7.56505 8.10538 7.55869 8.35388 7.31018C8.60239 7.06167 8.60875 6.66077 8.36825 6.40451L6.2906 4.32686C6.03584 4.07448 5.62532 4.07448 5.37056 4.32686L3.28742 6.40451C3.11426 6.56701 3.04335 6.81092 3.10238 7.04093C3.16141 7.27094 3.34102 7.45055 3.57103 7.50959C3.80105 7.56862 4.04496 7.4977 4.20746 7.32455L5.82509 5.70692L7.44821 7.32455Z" fill="#2D3748"/>
<path d="M14.5573 7.32455L16.1749 5.70692L17.7925 7.32455C18.0488 7.56505 18.4497 7.55869 18.6982 7.31018C18.9467 7.06167 18.9531 6.66077 18.7126 6.40451L16.6349 4.32686C16.3802 4.07448 15.9696 4.07448 15.7149 4.32686L13.6372 6.40451C13.3967 6.66077 13.4031 7.06167 13.6516 7.31018C13.9001 7.55869 14.301 7.56505 14.5573 7.32455Z" fill="#2D3748"/>
<path d="M9.38153 14.6767C9.12491 14.4366 8.724 14.4435 8.47586 14.6924C8.22771 14.9413 8.22196 15.3422 8.46286 15.5981L10.5405 17.6744C10.6624 17.7966 10.8279 17.8654 11.0005 17.8654C11.1732 17.8654 11.3387 17.7966 11.4605 17.6744L13.5382 15.5981C13.7028 15.4338 13.7672 15.1941 13.7072 14.9694C13.6471 14.7446 13.4718 14.569 13.2471 14.5087C13.0225 14.4483 12.7827 14.5123 12.6182 14.6767L11.0005 16.2957L9.38153 14.6767Z" fill="#2D3748"/>
</svg>
