<svg width="162" height="109" viewBox="0 0 162 109" fill="none" xmlns="http://www.w3.org/2000/svg">
<mask id="path-1-outside-1_2_89" maskUnits="userSpaceOnUse" x="-1" y="-1.00098" width="164" height="111" fill="black">
<rect fill="white" x="-1" y="-1.00098" width="164" height="111"/>
<path d="M43.5 108.499C15 108.499 0.75 90.899 0.75 55.699C0.75 36.399 4.5 22.449 12 13.849C19.5 5.14902 30.1 0.799023 43.8 0.799023C57.6 0.799023 68.2 5.14902 75.6 13.849C83 22.449 86.7 36.449 86.7 55.849C86.7 90.949 72.3 108.499 43.5 108.499ZM43.5 97.999C46.8 97.999 49.65 96.899 52.05 94.699C54.45 92.399 56.35 88.149 57.75 81.949C59.15 75.749 59.85 66.949 59.85 55.549C59.85 43.349 59.15 34.049 57.75 27.649C56.35 21.149 54.5 16.799 52.2 14.599C49.9 12.399 47.1 11.299 43.8 11.299C40.5 11.299 37.65 12.399 35.25 14.599C32.95 16.799 31.05 21.199 29.55 27.799C28.15 34.299 27.45 43.699 27.45 55.999C27.45 67.199 28.15 75.899 29.55 82.099C30.95 88.299 32.8 92.499 35.1 94.699C37.5 96.899 40.3 97.999 43.5 97.999ZM144.613 83.449C144.613 88.449 145.963 91.949 148.663 93.949C151.463 95.849 155.663 96.799 161.263 96.799C161.263 98.499 160.913 100.399 160.213 102.499C159.613 104.499 158.813 105.999 157.813 106.999H108.763C107.663 105.999 106.763 104.499 106.063 102.499C105.463 100.399 105.163 98.499 105.163 96.799C110.463 96.799 114.513 95.799 117.313 93.799C120.213 91.799 121.663 88.349 121.663 83.449V29.149C121.663 25.949 119.413 24.349 114.913 24.349C113.413 24.349 111.763 24.549 109.963 24.949C108.263 25.249 106.763 25.699 105.463 26.299L101.413 18.799L124.813 5.14902C127.913 3.34902 130.413 2.14902 132.313 1.54902C134.313 0.849019 136.063 0.499018 137.563 0.499018C140.063 0.499018 141.863 1.34902 142.963 3.04902C144.063 4.64902 144.613 6.49902 144.613 8.59902V83.449Z"/>
</mask>
<path d="M12 13.849L12.9044 14.6377L12.9089 14.6325L12 13.849ZM75.6 13.849L74.6859 14.6265L74.6904 14.6317L75.6 13.849ZM52.05 94.699L52.8609 95.5836L52.8707 95.5746L52.8803 95.5654L52.05 94.699ZM57.75 27.649L56.5769 27.9017L56.5777 27.9055L57.75 27.649ZM52.2 14.599L53.0295 13.7318L52.2 14.599ZM35.25 14.599L34.4391 13.7144L34.4297 13.723L34.4205 13.7318L35.25 14.599ZM29.55 27.799L28.3798 27.5331L28.3769 27.5464L29.55 27.799ZM29.55 82.099L30.7205 81.8347L29.55 82.099ZM35.1 94.699L34.2705 95.5662L34.2797 95.575L34.2891 95.5836L35.1 94.699ZM43.5 107.299C29.5099 107.299 19.21 102.992 12.3701 94.5439C5.49108 86.0477 1.95 73.1683 1.95 55.699H-0.45C-0.45 73.4298 3.13392 86.9504 10.5049 96.0541C17.915 105.206 28.9901 109.699 43.5 109.699V107.299ZM1.95 55.699C1.95 36.5043 5.68883 22.9116 12.9044 14.6377L11.0956 13.0603C3.31117 21.9865 -0.45 36.2938 -0.45 55.699H1.95ZM12.9089 14.6325C20.1367 6.24826 30.3752 1.99902 43.8 1.99902V-0.400978C29.8248 -0.400978 18.8633 4.04978 11.0911 13.0655L12.9089 14.6325ZM43.8 1.99902C57.3285 1.99902 67.5613 6.25027 74.6859 14.6265L76.5141 13.0715C68.8387 4.04777 57.8715 -0.400978 43.8 -0.400978V1.99902ZM74.6904 14.6317C81.8094 22.9052 85.5 36.5496 85.5 55.849H87.9C87.9 36.3484 84.1906 21.9929 76.5096 13.0663L74.6904 14.6317ZM85.5 55.849C85.5 73.2654 81.9226 86.1047 74.9723 94.5753C68.0593 103.001 57.6455 107.299 43.5 107.299V109.699C58.1545 109.699 69.3407 105.222 76.8277 96.0977C84.2774 87.0184 87.9 73.5327 87.9 55.849H85.5ZM43.5 99.199C47.0957 99.199 50.2362 97.9895 52.8609 95.5836L51.2391 93.8144C49.0638 95.8085 46.5043 96.799 43.5 96.799V99.199ZM52.8803 95.5654C55.5458 93.0109 57.5086 88.4662 58.9205 82.2133L56.5795 81.6847C55.1914 87.8318 53.3542 91.7871 51.2197 93.8326L52.8803 95.5654ZM58.9205 82.2133C60.3497 75.8839 61.05 66.9797 61.05 55.549H58.65C58.65 66.9183 57.9503 75.6141 56.5795 81.6847L58.9205 82.2133ZM61.05 55.549C61.05 43.3231 60.3502 33.9203 58.9223 27.3926L56.5777 27.9055C57.9498 34.1778 58.65 43.375 58.65 55.549H61.05ZM58.9231 27.3963C57.5171 20.8687 55.6101 16.2003 53.0295 13.7318L51.3705 15.4662C53.3899 17.3978 55.1829 21.4294 56.5769 27.9017L58.9231 27.3963ZM53.0295 13.7318C50.4972 11.3097 47.3964 10.099 43.8 10.099V12.499C46.8036 12.499 49.3028 13.4884 51.3705 15.4662L53.0295 13.7318ZM43.8 10.099C40.2043 10.099 37.0638 11.3085 34.4391 13.7144L36.0609 15.4836C38.2362 13.4895 40.7957 12.499 43.8 12.499V10.099ZM34.4205 13.7318C31.8438 16.1966 29.885 20.9106 28.3798 27.5331L30.7202 28.065C32.215 21.4874 34.0562 17.4015 36.0795 15.4662L34.4205 13.7318ZM28.3769 27.5464C26.9499 34.1719 26.25 43.6728 26.25 55.999H28.65C28.65 43.7253 29.3501 34.4262 30.7231 28.0517L28.3769 27.5464ZM26.25 55.999C26.25 67.2316 26.9505 76.035 28.3795 82.3633L30.7205 81.8347C29.3495 75.7631 28.65 67.1664 28.65 55.999H26.25ZM28.3795 82.3633C29.7886 88.6038 31.6996 93.107 34.2705 95.5662L35.9295 93.8318C33.9004 91.891 32.1114 87.9942 30.7205 81.8347L28.3795 82.3633ZM34.2891 95.5836C36.9062 97.9826 39.994 99.199 43.5 99.199V96.799C40.606 96.799 38.0938 95.8155 35.9109 93.8144L34.2891 95.5836ZM148.663 93.949L147.949 94.9133L147.969 94.9281L147.989 94.942L148.663 93.949ZM161.263 96.799H162.463V95.599H161.263V96.799ZM160.213 102.499L159.074 102.12L159.069 102.137L159.064 102.154L160.213 102.499ZM157.813 106.999V108.199H158.31L158.661 107.848L157.813 106.999ZM108.763 106.999L107.956 107.887L108.299 108.199H108.763V106.999ZM106.063 102.499L104.909 102.829L104.919 102.862L104.93 102.895L106.063 102.499ZM105.163 96.799V95.599H103.963V96.799H105.163ZM117.313 93.799L116.632 92.8112L116.623 92.8168L116.615 92.8225L117.313 93.799ZM109.963 24.949L110.171 26.1308L110.197 26.1262L110.223 26.1204L109.963 24.949ZM105.463 26.299L104.407 26.8692L104.942 27.8608L105.966 27.3886L105.463 26.299ZM101.413 18.799L100.808 17.7625L99.8053 18.3475L100.357 19.3692L101.413 18.799ZM124.813 5.14902L124.21 4.11127L124.208 4.11249L124.813 5.14902ZM132.313 1.54902L132.674 2.69332L132.692 2.68776L132.709 2.68165L132.313 1.54902ZM142.963 3.04902L141.955 3.70092L141.965 3.71502L141.974 3.72886L142.963 3.04902ZM143.413 83.449C143.413 88.6358 144.815 92.5924 147.949 94.9133L149.377 92.9848C147.11 91.3057 145.813 88.2622 145.813 83.449H143.413ZM147.989 94.942C151.08 97.0392 155.565 97.999 161.263 97.999V95.599C155.761 95.599 151.846 94.6589 149.337 92.9561L147.989 94.942ZM160.063 96.799C160.063 98.3378 159.745 100.107 159.074 102.12L161.351 102.878C162.08 100.691 162.463 98.6602 162.463 96.799H160.063ZM159.064 102.154C158.495 104.048 157.773 105.342 156.964 106.15L158.661 107.848C159.853 106.656 160.73 104.95 161.362 102.844L159.064 102.154ZM157.813 105.799H108.763V108.199H157.813V105.799ZM109.57 106.111C108.667 105.29 107.856 103.989 107.196 102.103L104.93 102.895C105.67 105.009 106.659 106.708 107.956 107.887L109.57 106.111ZM107.217 102.169C106.639 100.148 106.363 98.3611 106.363 96.799H103.963C103.963 98.637 104.287 100.65 104.909 102.829L107.217 102.169ZM105.163 97.999C110.587 97.999 114.924 96.9802 118.01 94.7755L116.615 92.8225C114.102 94.6178 110.339 95.599 105.163 95.599V97.999ZM117.994 94.7869C121.336 92.4823 122.863 88.5764 122.863 83.449H120.463C120.463 88.1217 119.09 91.1158 116.632 92.8112L117.994 94.7869ZM122.863 83.449V29.149H120.463V83.449H122.863ZM122.863 29.149C122.863 27.2315 122.166 25.6343 120.671 24.5711C119.251 23.5613 117.269 23.149 114.913 23.149V25.549C117.057 25.549 118.45 25.9368 119.28 26.527C120.035 27.0637 120.463 27.8666 120.463 29.149H122.863ZM114.913 23.149C113.308 23.149 111.569 23.3627 109.703 23.7776L110.223 26.1204C111.956 25.7353 113.518 25.549 114.913 25.549V23.149ZM109.754 23.7673C107.973 24.0817 106.371 24.5584 104.96 25.2095L105.966 27.3886C107.155 26.8396 108.553 26.4164 110.171 26.1308L109.754 23.7673ZM106.519 25.7288L102.469 18.2288L100.357 19.3692L104.407 26.8692L106.519 25.7288ZM102.018 19.8356L125.418 6.18555L124.208 4.11249L100.808 17.7625L102.018 19.8356ZM125.415 6.18677C128.489 4.4019 130.9 3.25366 132.674 2.69332L131.952 0.404724C129.926 1.04438 127.336 2.29614 124.21 4.11127L125.415 6.18677ZM132.709 2.68165C134.63 2.00933 136.241 1.69902 137.563 1.69902V-0.700981C135.885 -0.700981 133.996 -0.311295 131.916 0.416393L132.709 2.68165ZM137.563 1.69902C139.765 1.69902 141.13 2.42531 141.955 3.70092L143.97 2.39712C142.596 0.272724 140.361 -0.700981 137.563 -0.700981V1.69902ZM141.974 3.72886C142.925 5.11234 143.413 6.72099 143.413 8.59902H145.813C145.813 6.27705 145.201 4.18569 143.952 2.36919L141.974 3.72886ZM143.413 8.59902V83.449H145.813V8.59902H143.413Z" fill="#8B938D" mask="url(#path-1-outside-1_2_89)"/>
</svg>
